<?xml version="1.0" encoding="UTF-8" standalone="no"?>
<!DOCTYPE svg PUBLIC "-//W3C//DTD SVG 1.1//EN" "http://www.w3.org/Graphics/SVG/1.1/DTD/svg11.dtd">
<svg xmlns="http://www.w3.org/2000/svg" version="1.1" viewBox="0.00 0.00 612.00 792.00">
<path stroke="#000000" stroke-opacity="0.000" fill="none" stroke-width="1.00" vector-effect="non-scaling-stroke" d="
  M 0.00 0.00
  L 612.00 0.00
  L 612.00 792.00
  L 0.00 792.00
  L 0.00 0.00"
/>
<path stroke="#231f20" stroke-opacity="0.502" fill="none" stroke-width="1.00" vector-effect="non-scaling-stroke" d="
  M 415.03 172.69
  Q 414.63 172.63 414.61 172.22
  Q 413.68 154.91 408.49 140.36
  C 399.66 115.58 384.53 93.45 367.10 71.54
  Q 362.92 66.29 359.84 64.51
  Q 354.60 61.48 347.70 61.57
  Q 339.58 61.68 332.00 63.44
  Q 317.23 66.85 301.48 70.62
  C 293.27 72.59 284.76 74.63 276.50 75.54
  C 254.77 77.96 233.63 71.64 214.78 58.92
  Q 211.99 57.04 208.88 56.32
  C 198.00 53.79 185.49 53.95 175.32 58.88
  C 167.51 62.66 163.68 69.48 161.51 77.79
  Q 159.08 87.10 156.71 96.15
  C 155.32 101.50 152.05 109.90 146.89 112.59
  C 130.44 121.18 111.30 126.28 93.11 122.77
  C 84.13 121.04 75.78 116.74 66.56 115.20
  Q 32.31 109.47 15.77 138.21
  Q 6.77 153.84 6.19 174.64
  C 5.87 186.15 11.86 196.68 18.56 205.57
  C 27.99 218.12 37.54 230.25 44.96 244.02
  Q 60.54 272.93 56.03 303.59
  Q 54.73 312.42 51.72 323.29
  Q 44.64 348.85 42.30 377.35
  Q 38.30 426.08 46.28 474.12
  C 46.62 476.18 45.77 478.27 47.35 479.92
  Q 49.19 481.84 51.80 482.72
  Q 60.37 485.58 69.52 487.27
  Q 91.57 491.34 113.48 494.17
  Q 196.19 504.84 281.78 508.12
  Q 314.79 509.38 347.43 508.88
  Q 372.76 508.48 396.24 506.16
  C 410.46 504.76 425.35 502.49 438.81 497.85
  C 448.09 494.64 457.87 489.33 459.46 478.74
  Q 461.64 464.19 462.23 450.00
  Q 463.12 428.38 462.87 407.75
  C 462.73 396.10 462.64 384.13 462.34 371.75
  Q 461.73 346.71 462.12 323.01
  Q 462.27 314.28 463.77 306.48
  Q 464.12 304.63 465.61 303.52
  C 487.96 286.77 510.70 269.82 531.00 250.74
  C 538.27 243.90 540.59 235.72 539.59 225.61
  Q 537.92 208.55 527.61 192.28
  Q 523.11 185.16 517.98 181.40
  C 509.09 174.87 498.13 171.95 487.46 170.54
  Q 476.37 169.07 465.21 169.01
  Q 441.30 168.88 416.48 172.68
  Q 415.70 172.80 415.03 172.69"
/>
<path stroke="#231f20" stroke-opacity="0.502" fill="none" stroke-width="1.00" vector-effect="non-scaling-stroke" d="
  M 591.43 650.25
  C 591.43 578.22 533.04 519.83 461.01 519.83
  C 388.98 519.83 330.59 578.22 330.59 650.25
  C 330.59 722.28 388.98 780.67 461.01 780.67
  C 533.04 780.67 591.43 722.28 591.43 650.25"
/>
<path stroke="#231f20" stroke-opacity="0.502" fill="none" stroke-width="1.00" vector-effect="non-scaling-stroke" d="
  M 408.73 180.39
  Q 408.29 178.56 408.08 176.69
  C 407.34 170.20 407.07 163.63 405.76 157.20
  Q 401.91 138.21 390.75 118.43
  Q 379.00 97.59 360.19 74.29
  Q 357.46 70.92 354.59 69.81
  Q 350.69 68.30 346.47 68.55
  Q 337.30 69.10 324.62 72.31
  Q 307.91 76.54 289.91 80.45
  Q 279.28 82.77 270.06 83.05
  C 249.20 83.68 228.87 76.94 211.50 65.24
  Q 209.03 63.57 206.55 63.02
  C 196.17 60.72 176.43 60.77 171.11 72.30
  C 165.45 84.54 165.18 98.29 158.59 110.23
  C 156.00 114.92 152.41 117.98 147.48 120.31
  C 128.29 129.36 108.07 133.81 87.48 128.77
  C 83.01 127.67 77.65 125.45 72.77 123.93
  C 56.96 119.02 40.16 120.16 28.46 132.76
  C 17.75 144.29 12.60 162.50 13.30 177.62
  C 13.66 185.38 18.40 193.06 22.93 199.39
  Q 30.41 209.84 37.47 219.22
  C 46.98 231.84 55.34 246.25 59.82 261.26
  Q 67.36 286.48 61.42 313.48
  C 59.44 322.48 56.60 331.35 54.76 340.34
  C 45.87 383.93 45.86 430.57 53.57 474.95
  C 53.69 475.62 54.17 476.17 54.83 476.37
  Q 63.94 479.09 72.57 480.68
  Q 92.63 484.36 111.06 486.77
  Q 210.84 499.79 310.18 501.89
  Q 340.64 502.54 372.44 500.97
  Q 393.01 499.96 412.50 496.95
  C 422.87 495.34 434.04 492.94 443.47 488.13
  C 447.79 485.92 451.66 482.82 452.49 477.76
  C 454.98 462.42 455.66 446.56 455.80 430.93
  C 455.86 424.37 456.06 418.09 455.98 411.26
  Q 455.73 392.36 455.35 375.00
  Q 454.74 346.98 455.12 322.73
  Q 455.29 312.38 457.10 304.36
  C 457.57 302.24 458.63 299.97 460.41 298.62
  C 482.49 281.84 505.63 264.96 526.08 245.62
  Q 529.94 241.97 531.22 238.54
  C 536.09 225.46 528.92 207.75 521.39 195.71
  Q 518.07 190.39 513.75 187.02
  C 506.93 181.70 497.10 179.18 488.45 177.84
  Q 472.90 175.42 455.71 176.09
  Q 431.76 177.01 409.53 180.92
  Q 408.88 181.04 408.73 180.39"
/>
<path stroke="#000000" stroke-opacity="0.502" fill="none" stroke-width="1.00" vector-effect="non-scaling-stroke" d="
  M 217.38 141.00
  C 217.38 135.05 212.16 130.23 205.72 130.23
  C 199.28 130.23 194.06 135.05 194.06 141.00
  C 194.06 146.95 199.28 151.77 205.72 151.77
  C 212.16 151.77 217.38 146.95 217.38 141.00"
/>
<path stroke="#000000" stroke-opacity="0.502" fill="none" stroke-width="1.00" vector-effect="non-scaling-stroke" d="
  M 317.64 141.00
  C 317.64 135.05 312.43 130.22 306.00 130.22
  C 299.57 130.22 294.36 135.05 294.36 141.00
  C 294.36 146.95 299.57 151.78 306.00 151.78
  C 312.43 151.78 317.64 146.95 317.64 141.00"
/>
<path stroke="#000000" stroke-opacity="0.502" fill="none" stroke-width="1.00" vector-effect="non-scaling-stroke" d="
  M 324.09 176.17
  Q 323.99 176.01 323.83 176.10
  Q 297.29 190.54 269.17 194.18
  Q 226.46 199.71 189.96 177.92
  Q 184.86 174.88 179.83 170.68
  Q 179.25 170.20 178.77 170.78
  L 176.76 173.21
  Q 176.40 173.64 176.84 173.99
  C 203.13 194.76 237.10 202.77 270.23 198.40
  Q 298.09 194.73 325.99 179.88
  Q 326.15 179.79 326.06 179.63
  Q 324.81 177.31 324.09 176.17"
/>
<path stroke="#000000" stroke-opacity="0.502" fill="none" stroke-width="1.00" vector-effect="non-scaling-stroke" d="
  M 230.08 327.29
  C 229.35 326.65 228.09 326.25 227.15 326.32
  C 220.43 326.81 220.03 337.35 226.77 338.18
  Q 228.80 338.43 230.22 336.75
  C 230.36 336.58 230.62 336.57 230.77 336.74
  Q 231.01 337.02 230.98 337.41
  Q 230.91 338.01 231.52 338.00
  L 232.14 337.99
  C 232.48 337.98 232.75 337.71 232.75 337.37
  L 232.75 321.49
  Q 232.75 320.97 232.23 320.99
  L 231.10 321.03
  Q 230.74 321.05 230.74 321.40
  L 230.75 326.98
  Q 230.76 327.88 230.08 327.29"
/>
<path stroke="#000000" stroke-opacity="0.502" fill="none" stroke-width="1.00" vector-effect="non-scaling-stroke" d="
  M 243.49 327.47
  L 243.51 321.50
  Q 243.51 321.00 243.00 321.00
  L 242.00 321.01
  Q 241.50 321.01 241.50 321.50
  L 241.50 337.32
  C 241.50 337.65 241.74 337.93 242.06 337.99
  Q 242.55 338.08 243.03 337.90
  C 243.20 337.84 243.31 337.66 243.28 337.48
  Q 243.26 337.35 243.25 337.22
  Q 243.14 336.31 243.86 336.88
  Q 247.48 339.72 250.89 336.64
  C 252.92 334.80 253.13 329.78 250.98 327.74
  Q 247.90 324.82 243.91 327.68
  Q 243.49 327.98 243.49 327.47"
/>
<path stroke="#000000" stroke-opacity="0.502" fill="none" stroke-width="1.00" vector-effect="non-scaling-stroke" d="
  M 279.50 330.93
  L 279.50 321.50
  Q 279.51 321.00 279.00 321.00
  L 278.00 321.01
  Q 277.50 321.01 277.50 321.50
  L 277.50 337.50
  C 277.50 337.77 277.72 337.99 278.00 337.99
  L 278.98 338.00
  C 279.32 338.00 279.59 337.71 279.55 337.37
  Q 279.38 335.73 279.55 334.23
  Q 279.85 331.54 281.46 333.73
  L 284.22 337.50
  C 284.46 337.83 284.85 338.01 285.26 338.00
  L 286.51 337.97
  Q 287.11 337.95 286.75 337.47
  L 282.37 331.68
  C 282.12 331.35 282.16 330.87 282.47 330.59
  Q 284.35 328.86 286.01 327.07
  Q 286.59 326.45 285.74 326.47
  Q 285.74 326.47 284.77 326.50
  Q 283.94 326.53 283.39 327.16
  L 280.01 331.12
  Q 279.50 331.72 279.50 330.93"
/>
<path stroke="#000000" stroke-opacity="0.502" fill="none" stroke-width="1.00" vector-effect="non-scaling-stroke" d="
  M 141.75 330.82
  C 141.75 330.65 141.89 330.51 142.06 330.51
  L 147.48 330.47
  C 147.65 330.47 147.79 330.33 147.79 330.16
  L 147.78 329.35
  C 147.78 329.19 147.64 329.05 147.48 329.05
  L 142.06 328.97
  C 141.89 328.97 141.75 328.83 141.75 328.66
  L 141.75 323.56
  C 141.75 323.39 141.89 323.25 142.06 323.25
  L 147.95 323.25
  C 148.13 323.25 148.27 323.11 148.26 322.93
  L 148.24 322.05
  C 148.23 321.88 148.10 321.75 147.93 321.75
  L 140.06 321.75
  C 139.89 321.75 139.75 321.89 139.75 322.06
  L 139.75 337.68
  C 139.75 337.86 139.89 338.00 140.07 337.99
  L 141.45 337.96
  C 141.62 337.95 141.75 337.82 141.75 337.65
  L 141.75 330.82"
/>
<path stroke="#000000" stroke-opacity="0.502" fill="none" stroke-width="1.00" vector-effect="non-scaling-stroke" d="
  M 309.7697 323.0012
  C 309.76 322.36 309.17 321.85 308.4737 321.8703
  C 307.77 321.89 307.22 322.42 307.2303 323.0588
  C 307.24 323.70 307.83 324.21 308.5263 324.1897
  C 309.23 324.17 309.78 323.64 309.7697 323.0012"
/>
<path stroke="#000000" stroke-opacity="0.502" fill="none" stroke-width="1.00" vector-effect="non-scaling-stroke" d="
  M 187.50 325.98
  L 187.52 323.92
  Q 187.52 323.31 186.92 323.42
  L 186.17 323.57
  C 185.77 323.64 185.48 323.99 185.49 324.39
  L 185.51 325.99
  Q 185.52 326.49 185.02 326.47
  Q 184.49 326.44 184.01 326.63
  Q 183.28 326.93 183.76 327.55
  Q 184.16 328.06 184.81 328.01
  Q 185.54 327.95 185.53 328.69
  Q 185.45 332.02 185.53 335.21
  C 185.59 337.34 188.16 339.47 190.02 337.79
  Q 191.27 336.66 189.59 336.78
  Q 188.66 336.84 187.99 336.33
  Q 187.54 335.99 187.54 335.43
  L 187.48 328.52
  Q 187.48 328.01 187.98 328.01
  L 189.94 327.99
  Q 190.51 327.98 190.54 327.42
  L 190.57 326.95
  Q 190.60 326.54 190.18 326.53
  L 187.98 326.48
  Q 187.49 326.47 187.50 325.98"
/>
<path stroke="#000000" stroke-opacity="0.502" fill="none" stroke-width="1.00" vector-effect="non-scaling-stroke" d="
  M 152.76 328.03
  L 152.70 326.86
  C 152.68 326.53 152.39 326.29 152.06 326.34
  L 151.73 326.39
  Q 151.00 326.51 151.00 327.24
  L 151.00 337.50
  Q 151.00 338.00 151.50 338.00
  L 152.54 338.00
  Q 153.00 338.00 153.00 337.55
  C 153.02 335.24 151.91 328.17 155.96 328.26
  Q 156.71 328.28 156.75 327.53
  L 156.78 327.02
  Q 156.83 326.09 155.91 326.21
  Q 154.13 326.44 153.19 328.13
  Q 152.79 328.85 152.76 328.03"
/>
<path stroke="#000000" stroke-opacity="0.502" fill="none" stroke-width="1.00" vector-effect="non-scaling-stroke" d="
  M 162.3984 338.1793
  C 165.50 338.69 168.46 336.46 169.0035 333.1810
  C 169.55 329.91 167.47 326.83 164.3616 326.3207
  C 161.26 325.81 158.30 328.04 157.7565 331.3190
  C 157.21 334.59 159.29 337.67 162.3984 338.1793"
/>
<path stroke="#000000" stroke-opacity="0.502" fill="none" stroke-width="1.00" vector-effect="non-scaling-stroke" d="
  M 173.50 327.39
  Q 173.53 327.22 173.51 327.06
  Q 173.42 326.46 172.81 326.48
  L 172.24 326.50
  Q 171.75 326.52 171.75 327.01
  L 171.75 337.50
  Q 171.75 338.01 172.25 338.00
  L 173.26 337.99
  Q 173.76 337.98 173.76 337.49
  L 173.75 332.07
  Q 173.74 329.47 175.90 328.02
  Q 176.75 327.44 177.61 327.95
  Q 179.51 329.08 179.50 331.28
  L 179.50 337.37
  Q 179.49 337.99 180.12 337.99
  L 180.98 338.00
  C 181.28 338.00 181.52 337.76 181.52 337.46
  C 181.48 334.78 182.02 329.91 180.71 327.98
  C 179.27 325.88 176.04 325.69 174.05 327.68
  Q 173.29 328.44 173.50 327.39"
/>
<path stroke="#000000" stroke-opacity="0.502" fill="none" stroke-width="1.00" vector-effect="non-scaling-stroke" d="
  M 204.23 336.88
  Q 204.36 336.99 204.36 337.11
  Q 204.36 337.60 204.79 337.82
  Q 205.22 338.04 205.72 338.05
  Q 206.38 338.06 206.35 337.40
  Q 206.20 334.00 206.24 330.85
  C 206.29 326.27 202.07 325.51 198.67 326.93
  Q 198.16 327.15 198.12 327.71
  L 198.10 327.99
  Q 198.06 328.54 198.58 328.36
  Q 200.33 327.76 202.01 327.78
  Q 203.26 327.79 203.84 328.91
  L 204.10 329.41
  Q 204.67 330.53 203.41 330.53
  Q 201.16 330.52 199.29 331.54
  C 194.28 334.27 199.10 341.12 204.05 336.88
  Q 204.14 336.81 204.23 336.88"
/>
<path stroke="#000000" stroke-opacity="0.502" fill="none" stroke-width="1.00" vector-effect="non-scaling-stroke" d="
  M 211.31 327.48
  Q 211.21 326.24 209.94 326.45
  Q 209.50 326.52 209.50 326.96
  L 209.50 337.49
  Q 209.50 337.99 209.99 337.99
  L 211.00 338.00
  Q 211.51 338.00 211.51 337.50
  L 211.50 331.64
  Q 211.49 329.33 213.42 328.04
  Q 213.86 327.75 214.33 327.76
  Q 217.26 327.77 217.26 330.71
  L 217.24 337.49
  Q 217.24 337.99 217.74 337.99
  L 218.76 338.00
  C 219.06 338.01 219.31 337.75 219.29 337.45
  C 219.13 334.72 219.92 329.89 218.28 327.79
  C 217.02 326.18 213.32 325.53 211.86 327.63
  Q 211.38 328.33 211.31 327.48"
/>
<path stroke="#000000" stroke-opacity="0.502" fill="none" stroke-width="1.00" vector-effect="non-scaling-stroke" d="
  M 261.26 336.84
  Q 261.42 336.98 261.35 337.21
  C 261.30 337.41 261.38 337.62 261.56 337.72
  Q 262.10 338.01 262.70 338.04
  Q 263.37 338.08 263.34 337.41
  Q 263.22 334.27 263.24 331.04
  C 263.27 326.30 259.48 325.59 255.78 326.84
  C 255.43 326.96 255.17 327.27 255.11 327.64
  L 255.06 327.97
  Q 254.97 328.56 255.54 328.37
  Q 257.31 327.76 259.01 327.78
  Q 260.26 327.79 260.83 328.90
  L 261.10 329.41
  Q 261.67 330.52 260.42 330.52
  Q 258.16 330.53 256.30 331.54
  C 251.27 334.26 256.10 341.16 261.11 336.84
  Q 261.19 336.78 261.26 336.84"
/>
<path stroke="#000000" stroke-opacity="0.502" fill="none" stroke-width="1.00" vector-effect="non-scaling-stroke" d="
  M 274.27 336.30
  C 265.72 339.07 265.99 325.40 274.26 328.16
  Q 274.71 328.31 274.78 327.84
  L 274.84 327.48
  Q 274.95 326.84 274.33 326.64
  C 271.12 325.65 267.33 326.78 266.28 330.35
  C 264.68 335.83 269.01 339.42 274.29 337.84
  C 274.66 337.72 274.91 337.37 274.88 336.98
  L 274.86 336.69
  C 274.83 336.40 274.55 336.21 274.27 336.30"
/>
<path stroke="#000000" stroke-opacity="0.502" fill="none" stroke-width="1.00" vector-effect="non-scaling-stroke" d="
  M 296.38 337.13
  C 300.11 339.85 304.29 337.31 304.68 332.85
  Q 305.12 327.73 301.04 326.52
  Q 298.41 325.73 296.11 327.78
  Q 295.46 328.36 295.50 327.49
  L 295.52 327.00
  C 295.53 326.70 295.29 326.46 294.99 326.47
  L 294.24 326.50
  C 293.97 326.51 293.75 326.74 293.75 327.01
  L 293.75 342.24
  Q 293.75 342.72 294.24 342.75
  L 295.21 342.80
  Q 295.74 342.82 295.74 342.29
  L 295.75 337.44
  Q 295.76 336.67 296.38 337.13"
/>
<path stroke="#000000" stroke-opacity="0.502" fill="none" stroke-width="1.00" vector-effect="non-scaling-stroke" d="
  M 315.25 332.50
  L 321.02 332.50
  Q 323.40 332.50 322.39 330.34
  Q 321.77 329.01 321.56 328.55
  Q 320.57 326.45 318.25 326.31
  C 309.29 325.78 310.35 341.64 321.37 337.66
  C 321.64 337.56 321.81 337.28 321.77 336.99
  L 321.72 336.60
  Q 321.67 336.22 321.30 336.31
  Q 319.45 336.76 317.70 336.72
  Q 315.93 336.68 315.04 335.15
  L 314.38 334.03
  Q 313.48 332.50 315.25 332.50"
/>
<path stroke="#000000" stroke-opacity="0.502" fill="none" stroke-width="1.00" vector-effect="non-scaling-stroke" d="
  M 332.47 336.26
  C 323.68 339.21 324.65 324.96 332.49 328.21
  Q 332.76 328.32 332.85 328.04
  L 333.17 327.12
  Q 333.27 326.85 332.99 326.77
  Q 328.03 325.33 325.53 328.46
  C 323.23 331.35 323.89 336.86 328.08 337.94
  Q 330.54 338.57 333.01 337.63
  C 333.14 337.58 333.21 337.43 333.16 337.30
  L 332.83 336.43
  Q 332.73 336.17 332.47 336.26"
/>
<path stroke="#000000" stroke-opacity="0.502" fill="none" stroke-width="1.00" vector-effect="non-scaling-stroke" d="
  M 338.02 332.50
  L 343.71 332.50
  Q 345.68 332.50 345.16 330.60
  L 344.75 329.09
  Q 344.24 327.23 342.40 326.65
  C 334.56 324.21 332.12 336.11 338.92 337.93
  Q 341.52 338.62 344.12 337.63
  Q 344.67 337.42 344.50 336.86
  L 344.43 336.61
  Q 344.29 336.16 343.84 336.29
  Q 341.98 336.86 340.23 336.68
  Q 338.51 336.50 337.67 334.99
  L 337.13 334.01
  Q 336.29 332.50 338.02 332.50"
/>
<path stroke="#000000" stroke-opacity="0.502" fill="none" stroke-width="1.00" vector-effect="non-scaling-stroke" d="
  M 309.4907 326.9083
  C 309.49 326.68 309.30 326.49 309.0700 326.4890
  L 307.9100 326.4910
  C 307.68 326.49 307.49 326.68 307.4907 326.9118
  L 307.5093 337.5717
  C 307.51 337.80 307.70 337.99 307.9300 337.9910
  L 309.0900 337.9890
  C 309.32 337.99 309.51 337.80 309.5093 337.5682
  L 309.4907 326.9083"
/>
<path stroke="#000000" stroke-opacity="0.502" fill="none" stroke-width="1.00" vector-effect="non-scaling-stroke" d="
  M 220.84 366.01
  Q 224.29 367.69 228.54 366.44
  Q 228.85 366.35 228.83 366.02
  L 228.77 364.96
  Q 228.76 364.75 228.56 364.83
  C 224.79 366.27 220.44 365.29 219.30 361.17
  Q 218.68 358.90 219.14 356.96
  Q 220.72 350.30 228.33 352.27
  C 228.59 352.34 228.85 352.16 228.88 351.89
  L 228.91 351.55
  Q 228.97 350.85 228.30 350.68
  Q 224.11 349.56 220.64 351.54
  C 215.71 354.35 215.76 363.54 220.84 366.01"
/>
<path stroke="#000000" stroke-opacity="0.502" fill="none" stroke-width="1.00" vector-effect="non-scaling-stroke" d="
  M 260.21 364.61
  C 262.60 362.45 265.03 360.15 266.02 357.00
  C 266.94 354.08 265.31 351.36 262.19 351.11
  Q 259.82 350.92 257.62 352.14
  C 257.26 352.34 257.14 352.82 257.38 353.16
  L 257.59 353.47
  C 257.72 353.67 257.99 353.72 258.19 353.58
  Q 260.05 352.27 261.89 352.64
  C 265.55 353.38 264.35 357.53 262.67 359.51
  Q 260.34 362.26 257.48 364.89
  Q 255.44 366.76 258.21 366.76
  L 266.19 366.74
  C 266.46 366.73 266.67 366.50 266.64 366.23
  L 266.60 365.84
  Q 266.54 365.25 265.94 365.25
  L 260.46 365.24
  Q 259.52 365.24 260.21 364.61"
/>
<path stroke="#000000" stroke-opacity="0.502" fill="none" stroke-width="1.00" vector-effect="non-scaling-stroke" d="
  M 244.07 355.25
  Q 243.92 355.23 243.76 355.25
  Q 243.33 355.31 243.14 355.70
  Q 242.96 356.08 243.26 356.44
  C 243.39 356.59 243.58 356.69 243.78 356.70
  L 244.52 356.74
  Q 244.98 356.77 244.99 357.23
  Q 245.06 359.91 244.96 363.43
  C 244.88 366.05 246.56 367.47 249.22 366.88
  C 249.52 366.81 249.75 366.56 249.78 366.25
  L 249.82 365.81
  Q 249.85 365.40 249.44 365.47
  Q 247.02 365.89 247.01 363.50
  Q 247.00 360.53 246.99 357.25
  Q 246.99 356.71 247.52 356.73
  L 249.32 356.78
  Q 249.93 356.80 249.95 356.18
  L 249.96 355.84
  C 249.97 355.50 249.69 355.21 249.34 355.22
  L 247.51 355.26
  C 247.23 355.27 247.00 355.04 247.00 354.76
  L 246.99 352.68
  Q 246.99 351.83 246.18 352.09
  L 245.65 352.26
  Q 245.04 352.46 245.02 353.10
  L 244.99 354.49
  Q 244.98 355.41 244.07 355.25"
/>
<path stroke="#000000" stroke-opacity="0.502" fill="none" stroke-width="1.00" vector-effect="non-scaling-stroke" d="
  M 238.70 365.67
  Q 239.51 365.07 239.30 366.06
  Q 239.15 366.75 240.09 366.98
  C 240.55 367.10 241.00 366.75 241.00 366.27
  L 241.00 356.04
  Q 241.00 355.13 240.09 355.11
  L 239.72 355.10
  C 239.33 355.09 239.01 355.41 239.01 355.80
  L 239.00 362.10
  Q 238.99 364.84 236.32 365.45
  Q 235.83 365.56 235.34 365.39
  Q 233.26 364.67 233.26 362.47
  L 233.25 355.76
  Q 233.25 355.27 232.76 355.25
  L 231.79 355.21
  Q 231.27 355.18 231.26 355.71
  Q 231.19 359.24 231.30 362.76
  C 231.45 367.24 235.59 367.97 238.70 365.67"
/>
<path stroke="#000000" stroke-opacity="0.502" fill="none" stroke-width="1.00" vector-effect="non-scaling-stroke" d="
  M 213.0398 141.0510
  C 213.06 137.49 209.81 134.58 205.7750 134.5502
  C 201.74 134.52 198.45 137.39 198.4202 140.9490
  C 198.40 144.51 201.65 147.42 205.6850 147.4498
  C 209.72 147.48 213.01 144.61 213.0398 141.0510"
/>
<path stroke="#000000" stroke-opacity="0.502" fill="none" stroke-width="1.00" vector-effect="non-scaling-stroke" d="
  M 313.2900 140.9873
  C 313.28 137.43 310.01 134.54 305.9887 134.5500
  C 301.96 134.56 298.70 137.45 298.7100 141.0127
  C 298.72 144.57 301.99 147.46 306.0113 147.4500
  C 310.04 147.44 313.30 144.55 313.2900 140.9873"
/>
<path stroke="#000000" stroke-opacity="0.502" fill="none" stroke-width="1.00" vector-effect="non-scaling-stroke" d="
  M 227.3068 336.8177
  C 229.23 336.88 230.85 334.89 230.9283 332.3693
  C 231.01 329.85 229.51 327.76 227.5932 327.7023
  C 225.67 327.64 224.05 329.63 223.9717 332.1507
  C 223.89 334.67 225.39 336.76 227.3068 336.8177"
/>
<path stroke="#000000" stroke-opacity="0.502" fill="none" stroke-width="1.00" vector-effect="non-scaling-stroke" d="
  M 246.8925 336.7898
  C 248.89 336.81 250.52 334.80 250.5498 332.2878
  C 250.58 329.78 248.98 327.73 246.9875 327.7102
  C 244.99 327.69 243.36 329.70 243.3302 332.2122
  C 243.30 334.72 244.90 336.77 246.8925 336.7898"
/>
<path stroke="#000000" stroke-opacity="0.502" fill="none" stroke-width="1.00" vector-effect="non-scaling-stroke" d="
  M 163.4013 336.7399
  C 165.42 336.73 167.04 334.71 167.0199 332.2345
  C 167.00 329.76 165.35 327.77 163.3387 327.7801
  C 161.32 327.79 159.70 329.81 159.7201 332.2855
  C 159.74 334.76 161.39 336.75 163.4013 336.7399"
/>
<path stroke="#000000" stroke-opacity="0.502" fill="none" stroke-width="1.00" vector-effect="non-scaling-stroke" d="
  M 199.32 335.25
  C 199.65 336.47 200.98 337.11 202.14 336.61
  Q 204.72 335.48 204.25 332.49
  Q 204.19 332.04 203.74 332.00
  C 201.86 331.82 198.62 332.67 199.32 335.25"
/>
<path stroke="#000000" stroke-opacity="0.502" fill="none" stroke-width="1.00" vector-effect="non-scaling-stroke" d="
  M 259.08 332.02
  Q 255.63 333.10 256.33 335.27
  C 256.77 336.62 258.36 337.20 259.56 336.45
  Q 261.12 335.47 261.31 333.86
  Q 261.61 331.23 259.08 332.02"
/>
<path stroke="#000000" stroke-opacity="0.502" fill="none" stroke-width="1.00" vector-effect="non-scaling-stroke" d="
  M 299.1525 336.7998
  C 301.14 336.82 302.77 334.80 302.7998 332.2977
  C 302.83 329.79 301.24 327.74 299.2475 327.7202
  C 297.26 327.70 295.63 329.72 295.6002 332.2223
  C 295.57 334.73 297.16 336.78 299.1525 336.7998"
/>
<path stroke="#000000" stroke-opacity="0.502" fill="none" stroke-width="1.00" vector-effect="non-scaling-stroke" d="
  M 314.62 331.01
  L 320.34 330.99
  C 320.44 330.98 320.52 330.90 320.52 330.80
  L 320.52 330.71
  C 320.51 329.07 319.16 327.75 317.51 327.76
  L 317.41 327.76
  C 315.76 327.77 314.43 329.11 314.44 330.75
  L 314.44 330.84
  C 314.44 330.94 314.52 331.02 314.62 331.01"
/>
<path stroke="#000000" stroke-opacity="0.502" fill="none" stroke-width="1.00" vector-effect="non-scaling-stroke" d="
  M 337.36 331.01
  L 343.10 330.97
  C 343.20 330.97 343.28 330.89 343.28 330.79
  L 343.28 330.72
  C 343.27 329.08 341.92 327.76 340.26 327.77
  L 340.16 327.77
  C 338.50 327.78 337.17 329.12 337.18 330.76
  L 337.18 330.83
  C 337.18 330.93 337.26 331.01 337.36 331.01"
/>
<path stroke="#231f20" stroke-opacity="0.502" fill="none" stroke-width="1.00" vector-effect="non-scaling-stroke" d="
  M 584.61 650.25
  C 584.61 581.99 529.27 526.65 461.01 526.65
  C 392.75 526.65 337.41 581.99 337.41 650.25
  C 337.41 718.51 392.75 773.85 461.01 773.85
  C 529.27 773.85 584.61 718.51 584.61 650.25"
/>
<path stroke="#000000" stroke-opacity="0.502" fill="none" stroke-width="1.00" vector-effect="non-scaling-stroke" d="
  M 439.18 628.00
  Q 442.11 625.85 440.41 622.59
  C 440.22 622.23 439.92 621.94 439.55 621.76
  Q 436.26 620.19 432.01 621.09
  Q 431.50 621.19 431.50 621.72
  L 431.50 636.26
  Q 431.50 636.91 432.13 637.03
  Q 434.66 637.50 438.00 636.92
  C 441.70 636.27 442.73 632.63 440.80 629.70
  Q 440.47 629.20 439.92 628.96
  L 439.26 628.68
  Q 438.62 628.41 439.18 628.00"
/>
<path stroke="#000000" stroke-opacity="0.502" fill="none" stroke-width="1.00" vector-effect="non-scaling-stroke" d="
  M 460.49 624.81
  L 460.53 622.81
  C 460.54 622.55 460.30 622.35 460.05 622.40
  L 459.17 622.57
  C 458.77 622.65 458.48 622.99 458.49 623.39
  L 458.51 624.99
  Q 458.52 625.49 458.02 625.47
  Q 457.50 625.45 457.01 625.63
  Q 456.26 625.89 456.73 626.53
  Q 457.08 627.02 457.70 626.98
  Q 458.50 626.92 458.51 627.73
  Q 458.54 630.49 458.45 633.45
  C 458.39 635.61 459.29 637.30 461.78 637.27
  Q 462.68 637.26 463.20 636.65
  Q 464.03 635.70 462.77 635.78
  Q 461.90 635.83 461.15 635.47
  C 460.78 635.29 460.55 634.91 460.54 634.50
  L 460.48 627.73
  Q 460.47 626.84 461.35 626.97
  Q 462.46 627.12 463.44 626.64
  C 464.72 626.02 466.21 626.93 466.24 628.35
  C 466.31 631.31 464.83 638.64 470.65 637.02
  Q 471.17 636.88 471.04 636.35
  L 470.98 636.09
  Q 470.85 635.55 470.31 635.67
  Q 468.35 636.09 468.29 634.01
  Q 468.19 630.70 468.25 627.53
  Q 468.25 627.00 468.78 627.00
  L 470.74 626.99
  Q 471.22 626.99 471.27 626.51
  L 471.31 626.06
  C 471.34 625.76 471.10 625.49 470.80 625.49
  L 468.74 625.50
  Q 468.24 625.50 468.24 624.99
  L 468.26 623.07
  Q 468.26 622.38 467.57 622.45
  L 467.06 622.50
  C 466.58 622.55 466.22 622.96 466.23 623.44
  L 466.27 624.96
  Q 466.28 625.44 465.81 625.52
  Q 463.65 625.87 461.02 625.45
  Q 460.48 625.36 460.49 624.81"
/>
<path stroke="#000000" stroke-opacity="0.502" fill="none" stroke-width="1.00" vector-effect="non-scaling-stroke" d="
  M 448.6588 637.1810
  C 451.77 637.69 454.72 635.45 455.2551 632.1711
  C 455.79 628.90 453.71 625.83 450.6012 625.3190
  C 447.49 624.81 444.54 627.05 444.0049 630.3289
  C 443.47 633.60 445.55 636.67 448.6588 637.1810"
/>
<path stroke="#000000" stroke-opacity="0.502" fill="none" stroke-width="1.00" vector-effect="non-scaling-stroke" d="
  M 477.3984 637.1793
  C 480.50 637.69 483.46 635.46 484.0035 632.1810
  C 484.55 628.91 482.47 625.83 479.3616 625.3207
  C 476.26 624.81 473.30 627.04 472.7565 630.3190
  C 472.21 633.59 474.29 636.67 477.3984 637.1793"
/>
<path stroke="#000000" stroke-opacity="0.502" fill="none" stroke-width="1.00" vector-effect="non-scaling-stroke" d="
  M 488.50 626.50
  L 488.50 626.11
  Q 488.51 625.46 487.86 625.48
  L 487.24 625.50
  Q 486.75 625.51 486.75 626.01
  L 486.75 636.50
  Q 486.75 637.00 487.25 637.00
  L 488.25 636.99
  Q 488.79 636.98 488.78 636.45
  Q 488.70 632.93 488.77 629.95
  Q 488.82 627.60 491.26 626.77
  Q 491.62 626.64 491.99 626.80
  Q 494.00 627.68 494.00 629.88
  L 494.00 636.50
  Q 494.00 637.00 494.50 637.00
  L 495.54 637.00
  Q 496.04 637.00 496.03 636.50
  Q 495.94 632.61 496.04 629.52
  Q 496.10 627.59 498.14 626.81
  Q 499.44 626.31 500.97 628.76
  C 501.16 629.06 501.26 629.41 501.26 629.77
  L 501.24 636.49
  Q 501.24 636.99 501.74 636.99
  L 502.77 637.00
  Q 503.29 637.01 503.27 636.49
  C 503.13 633.13 504.74 622.96 497.48 625.70
  C 496.92 625.91 496.45 626.32 496.03 626.73
  Q 495.55 627.20 495.08 626.73
  Q 492.13 623.73 489.03 626.72
  Q 488.50 627.23 488.50 626.50"
/>
<path stroke="#000000" stroke-opacity="0.502" fill="none" stroke-width="1.00" vector-effect="non-scaling-stroke" d="
  M 448.89 665.04
  Q 452.25 666.66 456.53 665.44
  Q 456.86 665.35 456.84 665.01
  L 456.78 663.97
  Q 456.76 663.74 456.55 663.83
  C 444.57 668.53 442.86 647.75 456.41 651.28
  Q 456.82 651.39 456.85 650.97
  L 456.91 650.32
  Q 456.95 649.92 456.56 649.79
  C 452.33 648.46 447.18 649.75 445.62 654.31
  C 444.31 658.14 445.00 663.17 448.89 665.04"
/>
<path stroke="#000000" stroke-opacity="0.502" fill="none" stroke-width="1.00" vector-effect="non-scaling-stroke" d="
  M 489.50 653.09
  L 489.50 665.25
  Q 489.50 665.75 490.00 665.76
  L 490.99 665.77
  Q 491.50 665.78 491.50 665.26
  L 491.50 650.78
  C 491.50 650.37 491.13 650.06 490.73 650.13
  Q 488.74 650.48 486.74 651.97
  C 486.41 652.22 486.29 652.65 486.44 653.04
  L 486.55 653.31
  Q 486.68 653.64 487.01 653.48
  L 488.76 652.63
  Q 489.50 652.27 489.50 653.09"
/>
<path stroke="#000000" stroke-opacity="0.502" fill="none" stroke-width="1.00" vector-effect="non-scaling-stroke" d="
  M 472.22 654.30
  Q 471.98 654.19 471.70 654.26
  Q 471.33 654.35 471.15 654.69
  Q 471.00 654.96 471.12 655.22
  Q 471.34 655.67 471.84 655.70
  L 472.52 655.74
  Q 472.97 655.77 472.99 656.23
  Q 473.07 658.94 472.95 662.26
  C 472.84 664.95 474.53 666.58 477.29 665.85
  Q 477.74 665.73 477.78 665.27
  L 477.82 664.81
  Q 477.85 664.36 477.41 664.45
  Q 475.02 664.89 475.01 662.51
  Q 475.00 659.53 474.99 656.25
  Q 474.99 655.71 475.52 655.73
  L 477.32 655.78
  Q 477.93 655.80 477.95 655.18
  L 477.96 654.84
  C 477.97 654.49 477.68 654.21 477.34 654.22
  L 475.51 654.26
  C 475.23 654.27 475.00 654.04 475.00 653.76
  L 474.99 651.51
  Q 474.99 650.82 474.34 651.04
  L 473.85 651.20
  C 473.35 651.36 473.01 651.83 473.01 652.35
  L 473.00 653.77
  Q 473.00 654.61 472.22 654.30"
/>
<path stroke="#000000" stroke-opacity="0.502" fill="none" stroke-width="1.00" vector-effect="non-scaling-stroke" d="
  M 466.70 664.67
  Q 467.51 664.06 467.30 665.05
  Q 467.15 665.75 468.09 665.98
  C 468.55 666.10 469.00 665.75 469.00 665.28
  L 469.00 654.94
  Q 469.00 653.86 467.94 654.09
  L 467.57 654.18
  C 467.24 654.25 467.01 654.54 467.01 654.87
  L 467.00 661.15
  Q 466.99 663.85 464.35 664.44
  Q 463.29 664.67 462.16 663.87
  C 461.60 663.47 461.27 662.83 461.27 662.15
  L 461.24 654.75
  C 461.24 654.48 461.02 654.26 460.75 654.25
  L 459.80 654.21
  Q 459.26 654.18 459.25 654.72
  Q 459.21 658.24 459.29 661.63
  C 459.40 666.16 463.52 667.05 466.70 664.67"
/>
<path stroke="#000000" stroke-opacity="0.502" fill="none" stroke-width="1.00" vector-effect="non-scaling-stroke" d="
  M 433.50 622.80
  L 433.50 627.20
  C 433.50 627.50 433.74 627.75 434.05 627.75
  L 435.76 627.75
  C 437.56 627.75 439.02 626.59 439.02 625.14
  L 439.02 624.86
  C 439.02 623.42 437.57 622.25 435.76 622.25
  L 434.05 622.25
  C 433.75 622.25 433.50 622.49 433.50 622.80"
/>
<path stroke="#000000" stroke-opacity="0.502" fill="none" stroke-width="1.00" vector-effect="non-scaling-stroke" d="
  M 433.50 629.65
  L 433.50 635.31
  C 433.49 635.54 433.68 635.72 433.90 635.73
  L 435.76 635.73
  C 437.97 635.73 439.76 634.37 439.76 632.70
  L 439.76 632.30
  C 439.76 630.62 437.98 629.25 435.78 629.25
  L 433.92 629.25
  C 433.69 629.24 433.51 629.43 433.50 629.65"
/>
<path stroke="#000000" stroke-opacity="0.502" fill="none" stroke-width="1.00" vector-effect="non-scaling-stroke" d="
  M 449.6435 635.7399
  C 451.66 635.73 453.28 633.72 453.2699 631.2409
  C 453.26 628.77 451.61 626.77 449.5965 626.7801
  C 447.58 626.79 445.96 628.80 445.9701 631.2791
  C 445.98 633.75 447.63 635.75 449.6435 635.7399"
/>
<path stroke="#000000" stroke-opacity="0.502" fill="none" stroke-width="1.00" vector-effect="non-scaling-stroke" d="
  M 478.4013 635.7399
  C 480.42 635.73 482.04 633.71 482.0199 631.2345
  C 482.00 628.76 480.35 626.77 478.3387 626.7801
  C 476.32 626.79 474.70 628.81 474.7201 631.2855
  C 474.74 633.76 476.39 635.75 478.4013 635.7399"
/>
</svg>
