<?xml version="1.0" encoding="UTF-8" standalone="no"?>
<!DOCTYPE svg PUBLIC "-//W3C//DTD SVG 1.1//EN" "http://www.w3.org/Graphics/SVG/1.1/DTD/svg11.dtd">
<svg xmlns="http://www.w3.org/2000/svg" version="1.1" viewBox="0.00 0.00 256.00 256.00">
<path stroke="#000000" stroke-opacity="0.000" fill="none" stroke-width="1.00" vector-effect="non-scaling-stroke" d="
  M 0.00 0.00
  L 256.00 0.00
  L 256.00 256.00
  L 0.00 256.00
  L 0.00 0.00"
/>
<path stroke="#4b4b4b" stroke-opacity="0.502" fill="none" stroke-width="1.00" vector-effect="non-scaling-stroke" d="
  M 210.70 5.94
  C 204.59 2.28 197.41 0.28 190.32 0.27
  Q 145.08 0.18 98.52 0.26
  C 97.85 0.26 97.22 0.52 96.75 0.99
  L 24.60 73.12
  C 24.06 73.66 23.76 74.39 23.76 75.15
  Q 23.73 143.13 23.78 211.50
  Q 23.79 234.97 43.06 248.63
  C 49.51 253.21 57.98 255.74 65.94 255.75
  Q 126.34 255.77 187.70 255.77
  C 191.98 255.77 197.01 255.47 201.14 254.20
  C 220.30 248.31 232.11 231.61 232.18 211.82
  Q 232.30 178.52 232.29 53.04
  Q 232.29 39.29 230.97 33.68
  Q 226.71 15.54 210.70 5.94"
/>
<path stroke="#4b4b4b" stroke-opacity="0.502" fill="none" stroke-width="1.00" vector-effect="non-scaling-stroke" d="
  M 102.82 65.23
  C 99.90 73.61 91.49 80.09 82.20 80.21
  Q 62.15 80.47 40.30 80.19
  C 40.00 80.18 39.75 80.43 39.75 80.73
  Q 39.74 147.14 39.79 212.00
  Q 39.81 227.16 52.02 235.42
  Q 58.70 239.93 65.25 239.95
  Q 126.44 240.10 185.82 239.98
  C 193.25 239.97 198.30 239.37 203.92 235.53
  Q 211.79 230.16 214.76 221.66
  Q 216.35 217.12 216.33 206.46
  Q 216.14 128.37 216.30 47.02
  C 216.32 39.55 215.37 32.51 210.64 26.64
  C 204.21 18.68 196.91 15.90 186.77 15.94
  Q 147.22 16.09 104.89 15.98
  C 104.55 15.98 104.28 16.25 104.28 16.59
  Q 104.16 32.51 104.32 50.60
  Q 104.41 60.65 102.82 65.23"
/>
<path stroke="#4b4b4b" stroke-opacity="0.502" fill="none" stroke-width="1.00" vector-effect="non-scaling-stroke" d="
  M 90.11 158.04
  C 96.06 159.25 95.59 165.96 89.99 167.44
  Q 84.53 168.88 78.82 165.62
  C 75.62 163.80 71.63 163.23 70.02 167.53
  C 68.99 170.27 72.22 172.99 74.39 173.92
  Q 83.56 177.85 92.57 175.96
  C 100.26 174.34 105.26 168.47 104.44 160.35
  C 103.47 150.82 94.77 148.80 86.92 147.80
  Q 85.07 147.56 83.29 146.86
  C 80.34 145.69 80.00 142.22 81.95 139.95
  C 84.84 136.60 91.15 138.46 94.73 139.92
  C 101.62 142.72 104.34 135.11 98.95 132.18
  C 92.94 128.91 84.15 128.33 77.64 131.42
  C 71.82 134.19 69.60 140.73 70.90 146.84
  C 72.87 156.08 82.87 156.56 90.11 158.04"
/>
<path stroke="#4b4b4b" stroke-opacity="0.502" fill="none" stroke-width="1.00" vector-effect="non-scaling-stroke" d="
  M 176.34 159.22
  Q 176.17 167.32 168.95 167.77
  C 164.47 168.05 161.28 165.76 160.72 161.32
  C 160.06 156.07 160.01 150.41 160.66 145.40
  Q 161.37 139.84 165.82 138.54
  C 168.50 137.75 172.33 138.16 174.41 140.36
  C 176.58 142.65 178.34 145.52 181.96 143.06
  C 184.54 141.31 184.74 138.61 183.04 136.24
  C 179.16 130.82 173.15 129.22 166.69 129.47
  C 157.74 129.82 151.65 135.81 150.65 144.74
  Q 149.91 151.33 150.40 158.94
  Q 151.28 172.60 162.33 175.76
  Q 169.60 177.83 176.52 174.79
  C 184.95 171.09 186.45 162.57 186.07 153.89
  Q 185.93 150.48 182.54 150.48
  Q 177.26 150.47 172.65 150.54
  Q 168.93 150.60 168.76 154.31
  Q 168.75 154.51 168.78 154.71
  Q 169.23 158.00 172.72 158.22
  Q 174.00 158.31 175.29 158.22
  Q 176.36 158.14 176.34 159.22"
/>
<path stroke="#4b4b4b" stroke-opacity="0.502" fill="none" stroke-width="1.00" vector-effect="non-scaling-stroke" d="
  M 126.60 159.42
  C 126.12 157.83 125.85 156.18 125.31 154.53
  Q 121.75 143.73 118.34 133.49
  C 117.22 130.12 115.11 128.91 111.98 130.21
  Q 107.67 132.00 109.17 136.42
  Q 115.06 153.77 120.52 169.74
  C 121.82 173.54 124.07 177.08 128.55 176.10
  C 130.69 175.63 132.29 173.38 132.97 171.50
  Q 136.35 162.03 145.07 136.04
  Q 146.53 131.69 142.16 130.07
  C 138.97 128.89 136.70 130.70 135.73 133.81
  Q 131.85 146.35 127.81 159.42
  Q 127.20 161.39 126.60 159.42"
/>
</svg>
