<?xml version="1.0" encoding="UTF-8" standalone="no"?>
<svg
   version="1.1"
   viewBox="0.00 0.00 612.00 792.00"
   id="svg53"
   sodipodi:docname="plush_pattern.svg"
   inkscape:version="1.3.2 (091e20e, 2023-11-25)"
   xmlns:inkscape="http://www.inkscape.org/namespaces/inkscape"
   xmlns:sodipodi="http://sodipodi.sourceforge.net/DTD/sodipodi-0.dtd"
   xmlns="http://www.w3.org/2000/svg"
   xmlns:svg="http://www.w3.org/2000/svg">
  <defs
     id="defs53" />
  <sodipodi:namedview
     id="namedview53"
     pagecolor="#ffffff"
     bordercolor="#000000"
     borderopacity="0.25"
     inkscape:showpageshadow="2"
     inkscape:pageopacity="0.0"
     inkscape:pagecheckerboard="0"
     inkscape:deskcolor="#d1d1d1"
     inkscape:zoom="0.64037262"
     inkscape:cx="600.43167"
     inkscape:cy="377.90498"
     inkscape:window-width="1472"
     inkscape:window-height="711"
     inkscape:window-x="0"
     inkscape:window-y="37"
     inkscape:window-maximized="0"
     inkscape:current-layer="svg53" />
  <path
     stroke="#000000"
     stroke-opacity="0.000"
     fill="none"
     stroke-width="1.00"
     vector-effect="non-scaling-stroke"
     d="   M 0.00 0.00   L 612.00 0.00   L 612.00 792.00   L 0.00 792.00   L 0.00 0.00"
     id="path1" />
  <path
     stroke="#231f20"
     stroke-opacity="0.502"
     fill="none"
     stroke-width="1.00"
     vector-effect="non-scaling-stroke"
     d="   M 415.03 172.69   Q 414.63 172.63 414.61 172.22   Q 413.68 154.91 408.49 140.36   C 399.66 115.58 384.53 93.45 367.10 71.54   Q 362.92 66.29 359.84 64.51   Q 354.60 61.48 347.70 61.57   Q 339.58 61.68 332.00 63.44   Q 317.23 66.85 301.48 70.62   C 293.27 72.59 284.76 74.63 276.50 75.54   C 254.77 77.96 233.63 71.64 214.78 58.92   Q 211.99 57.04 208.88 56.32   C 198.00 53.79 185.49 53.95 175.32 58.88   C 167.51 62.66 163.68 69.48 161.51 77.79   Q 159.08 87.10 156.71 96.15   C 155.32 101.50 152.05 109.90 146.89 112.59   C 130.44 121.18 111.30 126.28 93.11 122.77   C 84.13 121.04 75.78 116.74 66.56 115.20   Q 32.31 109.47 15.77 138.21   Q 6.77 153.84 6.19 174.64   C 5.87 186.15 11.86 196.68 18.56 205.57   C 27.99 218.12 37.54 230.25 44.96 244.02   Q 60.54 272.93 56.03 303.59   Q 54.73 312.42 51.72 323.29   Q 44.64 348.85 42.30 377.35   Q 38.30 426.08 46.28 474.12   C 46.62 476.18 45.77 478.27 47.35 479.92   Q 49.19 481.84 51.80 482.72   Q 60.37 485.58 69.52 487.27   Q 91.57 491.34 113.48 494.17   Q 196.19 504.84 281.78 508.12   Q 314.79 509.38 347.43 508.88   Q 372.76 508.48 396.24 506.16   C 410.46 504.76 425.35 502.49 438.81 497.85   C 448.09 494.64 457.87 489.33 459.46 478.74   Q 461.64 464.19 462.23 450.00   Q 463.12 428.38 462.87 407.75   C 462.73 396.10 462.64 384.13 462.34 371.75   Q 461.73 346.71 462.12 323.01   Q 462.27 314.28 463.77 306.48   Q 464.12 304.63 465.61 303.52   C 487.96 286.77 510.70 269.82 531.00 250.74   C 538.27 243.90 540.59 235.72 539.59 225.61   Q 537.92 208.55 527.61 192.28   Q 523.11 185.16 517.98 181.40   C 509.09 174.87 498.13 171.95 487.46 170.54   Q 476.37 169.07 465.21 169.01   Q 441.30 168.88 416.48 172.68   Q 415.70 172.80 415.03 172.69"
     id="path2" />
  <path
     stroke="#231f20"
     stroke-opacity="0.502"
     fill="none"
     stroke-width="1.00"
     vector-effect="non-scaling-stroke"
     d="   M 591.43 650.25   C 591.43 578.22 533.04 519.83 461.01 519.83   C 388.98 519.83 330.59 578.22 330.59 650.25   C 330.59 722.28 388.98 780.67 461.01 780.67   C 533.04 780.67 591.43 722.28 591.43 650.25"
     id="path3" />
  <path
     stroke="#000000"
     stroke-opacity="0.502"
     fill="none"
     stroke-width="1.00"
     vector-effect="non-scaling-stroke"
     d="   M 217.38 141.00   C 217.38 135.05 212.16 130.23 205.72 130.23   C 199.28 130.23 194.06 135.05 194.06 141.00   C 194.06 146.95 199.28 151.77 205.72 151.77   C 212.16 151.77 217.38 146.95 217.38 141.00"
     id="path5" />
  <path
     stroke="#000000"
     stroke-opacity="0.502"
     fill="none"
     stroke-width="1.00"
     vector-effect="non-scaling-stroke"
     d="   M 317.64 141.00   C 317.64 135.05 312.43 130.22 306.00 130.22   C 299.57 130.22 294.36 135.05 294.36 141.00   C 294.36 146.95 299.57 151.78 306.00 151.78   C 312.43 151.78 317.64 146.95 317.64 141.00"
     id="path6" />
  <path
     stroke="#000000"
     stroke-opacity="0.502"
     fill="none"
     stroke-width="1.00"
     vector-effect="non-scaling-stroke"
     d="   M 324.09 176.17   Q 323.99 176.01 323.83 176.10   Q 297.29 190.54 269.17 194.18   Q 226.46 199.71 189.96 177.92   Q 184.86 174.88 179.83 170.68   Q 179.25 170.20 178.77 170.78   L 176.76 173.21   Q 176.40 173.64 176.84 173.99   C 203.13 194.76 237.10 202.77 270.23 198.40   Q 298.09 194.73 325.99 179.88   Q 326.15 179.79 326.06 179.63   Q 324.81 177.31 324.09 176.17"
     id="path7" />
</svg>
