<?xml version="1.0" encoding="UTF-8" standalone="no"?>
<!DOCTYPE svg PUBLIC "-//W3C//DTD SVG 1.1//EN" "http://www.w3.org/Graphics/SVG/1.1/DTD/svg11.dtd">
<svg xmlns="http://www.w3.org/2000/svg" version="1.1" viewBox="0.00 0.00 512.00 512.00">
<path stroke="#000000" stroke-opacity="0.000" fill="none" stroke-width="1.00" vector-effect="non-scaling-stroke" d="
  M 0.00 0.00
  L 512.00 0.00
  L 512.00 512.00
  L 0.00 512.00
  L 0.00 0.00"
/>
<path stroke="#4b4b4b" stroke-opacity="0.502" fill="none" stroke-width="1.00" vector-effect="non-scaling-stroke" d="
  M 458.90 455.85
  Q 464.24 440.92 464.24 426.14
  Q 464.20 261.10 464.32 92.15
  Q 464.32 80.25 463.36 73.54
  C 457.79 34.95 426.10 4.19 387.25 0.60
  Q 383.23 0.23 367.25 0.23
  Q 281.40 0.23 195.55 0.23
  C 195.03 0.23 194.52 0.44 194.16 0.81
  L 48.69 146.28
  C 48.08 146.89 47.73 147.73 47.73 148.59
  Q 47.81 284.04 47.68 420.13
  Q 47.67 431.56 48.61 438.22
  C 54.42 479.81 90.43 511.70 132.42 511.73
  Q 254.56 511.82 380.51 511.73
  C 409.98 511.71 438.57 494.29 452.84 468.69
  Q 455.86 463.27 458.19 457.71
  Q 458.56 456.82 458.90 455.85"
/>
<path stroke="#4b4b4b" stroke-opacity="0.502" fill="none" stroke-width="1.00" vector-effect="non-scaling-stroke" d="
  M 202.02 138.25
  Q 192.00 154.67 173.55 159.26
  Q 168.03 160.63 155.03 160.61
  Q 116.84 160.53 80.39 160.55
  Q 79.50 160.55 79.50 161.44
  Q 79.48 292.67 79.50 425.25
  Q 79.50 446.19 92.86 461.60
  Q 104.79 475.36 122.79 479.00
  Q 129.22 480.30 137.48 480.29
  Q 255.95 480.22 374.53 480.28
  C 387.19 480.29 398.32 477.95 408.72 470.84
  Q 426.13 458.94 431.16 437.81
  Q 432.53 432.03 432.53 422.49
  Q 432.51 254.40 432.46 87.08
  Q 432.46 73.13 427.37 62.97
  Q 414.76 37.79 387.91 32.75
  Q 382.12 31.66 368.08 31.68
  Q 303.96 31.74 238.75 31.85
  Q 222.88 31.88 209.16 31.65
  C 208.68 31.64 208.28 32.03 208.28 32.51
  Q 208.17 70.98 208.32 109.72
  Q 208.35 117.69 207.33 123.89
  Q 206.06 131.63 202.02 138.25"
/>
<path stroke="#4b4b4b" stroke-opacity="0.502" fill="none" stroke-width="1.00" vector-effect="non-scaling-stroke" d="
  M 354.01 309.24
  C 354.46 309.18 354.86 309.51 354.88 309.96
  C 355.18 318.01 353.02 325.33 344.54 328.05
  Q 339.55 329.65 333.58 328.13
  C 326.87 326.43 323.31 319.94 322.91 313.39
  Q 321.99 298.31 322.87 285.20
  C 323.42 277.12 327.46 270.75 335.91 269.30
  C 340.91 268.44 346.58 269.38 350.15 273.03
  C 352.67 275.60 355.10 279.32 358.69 280.20
  C 365.99 282.01 371.91 276.72 370.24 269.17
  C 369.18 264.37 364.18 259.33 360.11 256.83
  Q 352.26 252.00 341.83 251.40
  C 329.49 250.69 317.06 254.17 309.56 264.39
  C 303.61 272.50 302.50 282.44 302.25 292.83
  Q 301.90 307.08 303.10 316.68
  Q 304.12 324.84 308.41 331.81
  C 316.39 344.74 332.39 348.17 346.48 345.89
  C 360.46 343.63 370.81 333.38 373.39 319.56
  Q 375.05 310.69 374.65 301.17
  Q 374.36 294.13 367.43 293.88
  Q 357.78 293.52 347.90 293.82
  Q 341.87 294.01 340.12 298.53
  C 338.57 302.54 340.43 308.37 345.22 309.20
  Q 349.42 309.92 354.01 309.24"
/>
<path stroke="#4b4b4b" stroke-opacity="0.502" fill="none" stroke-width="1.00" vector-effect="non-scaling-stroke" d="
  M 265.78 311.31
  Q 265.51 313.04 265.02 311.36
  C 264.50 309.57 263.37 308.42 262.49 306.83
  Q 250.19 284.63 238.07 263.04
  C 235.32 258.14 232.27 253.74 226.66 252.39
  Q 223.11 251.54 220.00 252.82
  Q 213.08 255.68 213.05 263.87
  Q 212.92 301.83 213.06 336.50
  C 213.09 345.18 221.49 348.28 228.14 343.85
  C 231.18 341.82 231.33 334.97 231.31 331.75
  Q 231.22 309.80 231.28 286.24
  Q 231.28 285.09 231.85 286.10
  Q 245.42 310.33 259.12 334.86
  C 263.41 342.53 269.28 349.02 278.81 344.38
  C 282.53 342.56 284.21 337.99 284.22 334.17
  Q 284.26 299.67 284.27 262.50
  Q 284.27 260.06 283.62 257.94
  C 281.96 252.48 276.32 251.00 271.22 252.80
  C 267.40 254.14 266.05 258.80 266.04 262.50
  Q 265.99 285.68 266.00 310.19
  C 266.00 310.56 265.84 310.94 265.78 311.31"
/>
<path stroke="#4b4b4b" stroke-opacity="0.502" fill="none" stroke-width="1.00" vector-effect="non-scaling-stroke" d="
  M 149.46 312.11
  Q 156.59 312.43 164.74 312.19
  C 175.15 311.88 184.71 309.39 191.40 300.95
  Q 196.16 294.94 197.08 286.92
  Q 198.07 278.23 195.48 271.25
  C 190.67 258.26 178.81 253.04 165.64 252.83
  Q 152.47 252.62 137.15 252.80
  C 129.88 252.89 127.93 257.85 127.95 264.10
  Q 128.06 298.67 127.98 333.86
  C 127.97 335.57 128.42 336.99 128.69 338.66
  C 129.23 342.06 132.05 344.73 135.31 345.43
  Q 143.32 347.15 147.11 340.10
  C 147.69 339.03 147.46 337.80 147.72 336.60
  Q 148.00 335.28 148.00 333.82
  Q 148.00 324.27 148.00 313.49
  Q 148.01 312.04 149.46 312.11"
/>
<path stroke="#4b4b4b" stroke-opacity="0.502" fill="none" stroke-width="1.00" vector-effect="non-scaling-stroke" d="
  M 147.99 271.15
  L 148.03 293.85
  C 148.03 294.48 148.54 294.98 149.17 294.98
  L 164.79 294.96
  C 171.83 294.94 177.52 289.50 177.51 282.79
  L 177.51 282.09
  C 177.50 275.39 171.78 269.96 164.75 269.98
  L 149.13 270.00
  C 148.50 270.00 147.99 270.52 147.99 271.15"
/>
</svg>
