<?xml version="1.0" encoding="UTF-8" standalone="no"?>
<svg
   version="1.1"
   viewBox="0 0 1495 2106"
   id="svg16"
   sodipodi:docname="camber_p1_simplified_grid.svg"
   inkscape:version="1.3.2 (091e20e, 2023-11-25)"
   width="1495"
   height="2106"
   xmlns:inkscape="http://www.inkscape.org/namespaces/inkscape"
   xmlns:sodipodi="http://sodipodi.sourceforge.net/DTD/sodipodi-0.dtd"
   xmlns="http://www.w3.org/2000/svg"
   xmlns:svg="http://www.w3.org/2000/svg">
  <defs
     id="defs16" />
  <sodipodi:namedview
     id="namedview16"
     pagecolor="#ffffff"
     bordercolor="#000000"
     borderopacity="0.25"
     inkscape:showpageshadow="2"
     inkscape:pageopacity="0.0"
     inkscape:pagecheckerboard="0"
     inkscape:deskcolor="#d1d1d1"
     inkscape:zoom="0.79451426"
     inkscape:cx="1319.0449"
     inkscape:cy="528.62487"
     inkscape:window-width="1472"
     inkscape:window-height="799"
     inkscape:window-x="0"
     inkscape:window-y="37"
     inkscape:window-maximized="0"
     inkscape:current-layer="svg16"
     showgrid="true">
    <inkscape:grid
       id="grid1"
       units="px"
       originx="0.5"
       originy="0.5"
       spacingx="1"
       spacingy="1"
       empcolor="#0099e5"
       empopacity="0.30196078"
       color="#0099e5"
       opacity="0.14901961"
       empspacing="5"
       dotted="false"
       gridanglex="30"
       gridanglez="30"
       visible="true"
       enabled="false" />
    <inkscape:grid
       id="grid2"
       units="px"
       originx="0"
       originy="0"
       spacingx="1"
       spacingy="1"
       empcolor="#0099e5"
       empopacity="0.30196078"
       color="#0099e5"
       opacity="0.14901961"
       empspacing="5"
       dotted="false"
       gridanglex="30"
       gridanglez="30"
       visible="true"
       enabled="true" />
  </sodipodi:namedview>
  <path
     stroke="#000000"
     fill="none"
     stroke-width="1"
     vector-effect="non-scaling-stroke"
     d="m 0.5,0.5 h 1494 v 2105 H 0.5 V 0.5"
     id="path1" />
  <path
     stroke="#000000"
     fill="none"
     stroke-width="1"
     vector-effect="non-scaling-stroke"
     d="m 828.7563,188.4569 c 0.004,-0.2369 -0.1863,-0.4169 -0.4214,-0.4185 l -178.8389,0.6243 c -0.236,-0.003 -0.416,0.1873 -0.4186,0.4214 l 0.6263,179.399 c -0.004,0.2369 0.1863,0.4169 0.4214,0.4185 l 178.8389,-0.6243 c 0.236,0.003 0.416,-0.1873 0.4186,-0.4214 l -0.6263,-179.399"
     id="path3" />
  <path
     stroke="#000000"
     fill="none"
     stroke-width="1"
     vector-effect="non-scaling-stroke"
     d="m 607.09,1559.7597 c -1.51333,-44.18 -2.97667,-88.6 -4.39,-133.26 -0.21333,-6.8733 -0.48333,-13.65 -0.81,-20.33 -3.47333,-71.48 -6.83333,-141.9933 -10.08,-211.54 -0.31333,-6.68 -0.7,-13.2167 -1.16,-19.61 -1.72667,-23.9267 -3.54667,-47.8467 -5.46,-71.76 -0.59333,-7.4667 -1.21667,-14.0533 -1.87,-19.76 -4,-35.0333 -8.03667,-70.06 -12.11,-105.08 -0.78667,-6.73333 -1.52667,-13.35333 -2.22,-19.86 -3.50667,-32.88 -6.81,-64.07 -9.91,-93.57 -3.46,-32.86 -5.48,-66.67 -7.94,-99.66 -0.59,-8.01 -0.59,-16.24 -0.74,-24.31 -0.27,-15.69 0.85,-32.14 1.6,-47.56 0.34667,-7.02667 0.90333,-13.68 1.67,-19.96 2.09,-17.17 4.16,-35.29 6.89,-52.88 5.15333,-33.16667 10.57,-66.26667 16.25,-99.3 0.05,-0.31 -0.14,-0.62 -0.44,-0.71 -6.11333,-1.94667 -12.58333,-3.91 -19.41,-5.89 -4.02,-1.16 -7.98667,-2.69 -11.9,-4.59 -5.68667,-2.76 -11.39333,-5.44333 -17.12,-8.05 -3.87,-1.77 -7.08,-4.15 -10.57,-6.44 -2.55333,-1.66667 -5.06667,-3.66333 -7.54,-5.99 -5.79,-5.45 -11.83,-10.29 -16.21,-16.72 -4.09,-6.03 -8.58,-11.87 -12.01,-18.13 -3.40667,-6.22 -7.19,-13.02 -11.35,-20.4 -3.07,-5.46 -4.83,-11.23 -6.98,-17.06 -1.38,-3.74667 -2.56667,-7.79333 -3.56,-12.14 -2.18667,-9.64667 -4.4,-19.18333 -6.64,-28.61 -1.3,-5.48667 -2.33,-11.55 -3.09,-18.19 -1.27,-11.1 -3.21,-22.19 -3.75,-33.24 -0.60667,-12.32667 -1.16,-23.83667 -1.66,-34.53 -0.29333,-6.27333 -0.34333,-12.50333 -0.15,-18.69 0.18667,-6.06667 0.34333,-12.29333 0.47,-18.68 0.007,-0.44 -0.21,-0.66667 -0.65,-0.68 -8.20667,-0.18667 -16.54,-0.26333 -25,-0.23 -35.93333,0.15333 -71.18333,0.31333 -105.75,0.48 -77.18,0.36667 -154.52333,0.70333 -232.03,1.01 -0.52,0.01 -0.94,0.42 -0.94,0.94 l 6.07,1728.68 c 0,0.5 0.25,0.7467 0.75,0.74 33.08,-0.52 66.12667,-1.05 99.14,-1.59 7.14,-0.1133 13.81,-0.1533 20.01,-0.12 47.36,0.28 94.94333,0.5667 142.75,0.86 88.3,0.56 176.6,-0.55 264.89,-1.27 0.36,0 0.66,-0.3 0.66,-0.66 0.16,-12.49 0.47,-25.22 0.22,-37.54 -1.14043,-87.9323 -4.84212,-177.2051 -5.20882,-265.4128 -0.005,-38.7509 -1.53878,-79.8502 -2.72118,-118.7072 z"
     id="path4"
     sodipodi:nodetypes="ccccccccccccccccccccccccccccccsccccccccccccccccc" />
  <path
     stroke="#000000"
     fill="none"
     stroke-width="1"
     vector-effect="non-scaling-stroke"
     d="m 876.39,1680.01 c 0.11305,-0.2355 -0.9875,46.3215 -1.68,91.18 -0.10667,7.0267 -0.26667,13.6933 -0.48,20 -1.64667,48.7 -3.42333,97.4533 -5.33,146.26 -0.41,10.47 -1.27,21.2 -1.95,31.8 -0.02,0.24 0.17,0.45 0.41,0.46 28.84667,1.0533 59.49333,2.15 91.94,3.29 6.31333,0.22 12.99333,0.5233 20.04,0.91 28.08,1.52 56.2233,2.9833 84.43,4.39 6.6267,0.3267 13.29,0.6033 19.99,0.83 25.9067,0.88 50.83,1.7533 74.77,2.62 6.8267,0.2467 13.4833,0.43 19.97,0.55 24.6667,0.46 49.7533,0.9333 75.26,1.42 6.8667,0.1267 13.5633,0.1633 20.09,0.11 50.5133,-0.42 101.3533,-0.81 152.52,-1.17 0.3867,0 0.59,-0.1933 0.61,-0.58 0.18,-2.8333 0.1867,-5.6733 0.02,-8.52 -0.1867,-3.1467 -0.2933,-6.0333 -0.32,-8.66 -0.4267,-42.34 -0.5967,-84.8067 -0.51,-127.4 0.013,-6.1133 -0.02,-12.78 -0.1,-20 -0.3733,-34.2933 -0.4767,-68.6133 -0.31,-102.96 0.06,-10.88 -0.41,-22.61 -0.39,-34.15 1.2081,-308.3933 -0.955,11.3493 -1.9,-500.39 -0.08,-34.52 0.1,-69.71 -0.2,-105 -0.38,-45.24 -0.13,-89.96 -0.55,-134.5 -0.38,-40.78 0.01,-81.56 -0.41,-122.34 -0.43,-41.36 -0.1,-82.74 -0.5,-124.12 -0.41,-42.01 -0.03,-83.81 -0.44,-125.53 -0.42,-41.39 -0.09,-83.14 -0.5,-125.01 -0.3467,-35.59333 -0.4567,-71.26 -0.33,-107 0.02,-5.83333 -0.043,-12.49667 -0.19,-19.99 -0.3267,-16.24667 -0.32,-32.75 0.02,-49.51 0.013,-0.68 0.02,-1.35 0.02,-2.01 -0.073,-19.78 -0.1533,-39.49 -0.24,-59.13 0,-0.32 -0.25,-0.59 -0.57,-0.61 -12.9267,-0.83333 -25.55,-1.81333 -37.87,-2.94 -1.5533,-0.14 -3.1467,-0.30667 -4.78,-0.5 -1.4467,-0.16667 -2.8533,-0.40667 -4.22,-0.72 -7.7533,-1.79333 -15.66,-3.66 -23.72,-5.6 -8.15,-1.96 -15.84,-6.07 -23.32,-9.58 -4.04,-1.89 -7.37,-4.28 -11.03,-6.69 -6.42,-4.21 -11.73,-9.71 -17.41,-14.67 -3.58,-3.13 -6.33,-6.83 -9.44,-10.36 -2.24,-2.54 -4.3,-5.26333 -6.18,-8.17 -3.5667,-5.5 -6.8833,-10.65 -9.95,-15.45 -1.4133,-2.20667 -2.6433,-4.49333 -3.69,-6.86 -2.72,-6.12667 -5.45,-12.18333 -8.19,-18.17 -2.5667,-5.613333 -4.71,-11.256667 -6.43,-16.93 -1.98,-6.54 -4.0167,-13.126667 -6.11,-19.76 -0.08,-0.24 -0.34,-0.38 -0.58,-0.3 -6.3,2.006667 -12.0867,3.94 -17.36,5.8 -43.9,15.446667 -94.33,33.35 -151.29,53.71 -11.5933,4.14667 -23.6167,8.30667 -36.07,12.48 -0.36,0.12 -0.56,0.51 -0.44,0.87 1.96,6.12 3.8967,12.14 5.81,18.06 3.74,11.59 6.51,23.33 9.48,35.23 0.77,3.04 1.24,6.19 1.57,9.3 1.4,13.49 2.69,28.16 3.17,42.47 0.48,13.99 1.73,27.69 0.9,41.69 -0.6067,10.20667 -1.1333,20.50333 -1.58,30.89 -0.2133,4.82 -0.7967,9.86333 -1.75,15.13 -1.36,7.52 -2.6167,14.80667 -3.77,21.86 -0.6,3.65333 -1.5233,7.02333 -2.77,10.11 -2.72,6.76 -5.5767,13.61 -8.57,20.55 -2.82,6.53 -7.66,11.57 -12.08,17.08 -2.49,3.1 -5.92,5.04 -9.06,7.45 -2.44,1.87333 -5.0133,3.41667 -7.72,4.63 -3.94,1.75 -7.66,4 -11.83,5.1 -6.19333,1.63333 -12.8,3.47 -19.82,5.51 -4.28667,1.25333 -8.61,2.11 -12.97,2.57 -6.37333,0.67333 -12.65333,1.39667 -18.84,2.17 -0.2,0.02 -0.34,0.2 -0.32,0.4 0.64,6.76 1.32667,13.52 2.06,20.28 0.69333,6.42 1.05,12.79667 1.07,19.13 0.04,11.2 0.52,22.41 -0.38,33.63 -0.5,6.26667 -0.99333,10.85 -1.48,13.75 -2.57333,15.27333 -5.04333,30.1 -7.41,44.48 -1.12667,6.82 -2.35333,13.37 -3.68,19.65 -1.64,7.72 -3.24,15.34667 -4.8,22.88 -0.72,3.48 -1.59667,6.8 -2.63,9.96 -2.75,8.36 -5.39,16.92 -8.76,25.12 -4.40667,10.74 -8.62667,21.03333 -12.66,30.88 -0.26667,0.64667 -0.08,0.82667 0.56,0.54 L 1177.45,552.7 c 0.34,-0.15333 0.59,-0.39667 0.75,-0.73 0.5,-1.04 1.11,-1.11333 1.83,-0.22 0.1,0.13 0.08,0.32 -0.04,0.43 -33.7867,30.50667 -67.2167,60.70667 -100.29,90.6 -4.9533,4.47333 -9.86,8.97 -14.72,13.49 -34.4133,31.99333 -68.82,64.01 -103.22,96.05 -0.30667,0.28667 -0.48,0.63667 -0.52,1.05 -1.21,11.23 -2.52,22.43 -4.69,33.6 -2.89333,14.95333 -5.80667,29.89667 -8.74,44.83 -1.22,6.19333 -2.37667,12.79667 -3.47,19.81 -3.84667,24.68 -7.19,45.2 -10.03,61.56 -3.98,22.9 -8,46.05333 -12.06,69.46 -1.17333,6.77333 -2.25667,13.35667 -3.25,19.75 -3.48667,22.4133 -6.9,44.49 -10.24,66.23 -1.01333,6.6 -1.92333,13.2167 -2.73,19.85 -2.53,20.74 -5.37,41.46 -7.26,62.25 -1.66667,18.2533 -3.32333,36.8633 -4.97,55.83 -1.58,18.19 -2.63,37.05 -3.66,54.72 -1.84667,31.8 -3.53,61.6333 -5.05,89.5 -0.36,6.64 -0.62333,13.3033 -0.79,19.99 -2.65745,102.5457 -5.42034,204.3501 -7.89624,307.3151 -0.27664,0.4163 0.0129,1.7382 -0.0138,1.9449 z"
     id="path5"
     sodipodi:nodetypes="cccccccccccccccccccccccccccccccccccccccccccccccccccccccccccccccccccccccccccccccccccccccccccccccccccccccccc" />
  <path
     stroke="#000000"
     fill="none"
     stroke-width="1"
     vector-effect="non-scaling-stroke"
     d="m 1245.48,803.35 c -0.14,0.22 0.02,0.52 0.29,0.52 l 13.38,-0.08 c 0.19,0 0.34,0.15 0.34,0.34 l 2.65,700.1 c 0,0.19 -0.15,0.34 -0.34,0.34 l -14.31,0.05 c -0.27,0 -0.43,0.3 -0.29,0.52 l 14.56,22.73 c 0.14,0.21 0.44,0.21 0.58,0 l 14.38,-22.77 c 0.14,-0.22 -0.02,-0.52 -0.29,-0.52 l -13.05,0.01 c -0.19,0 -0.34,-0.15 -0.34,-0.34 l -2.6,-700.11 c 0,-0.19 0.15,-0.34 0.34,-0.34 l 15.65,-0.13 c 0.27,0 0.43,-0.29 0.28,-0.52 l -15.48,-23.99 c -0.14,-0.21 -0.44,-0.21 -0.57,0 l -15.18,24.19"
     id="path7" />
  <path
     stroke="#000000"
     fill="none"
     stroke-width="1"
     vector-effect="non-scaling-stroke"
     d="m 442.1,1530.81 c 0.17,-0.27 -0.02,-0.62 -0.34,-0.62 l -12.9,0.04 c -0.22,0 -0.4,-0.18 -0.4,-0.4 l -2.63,-699.94 c 0,-0.22 0.18,-0.4 0.4,-0.4 l 15.5,-0.17 c 0.32,-0.01 0.51,-0.35 0.34,-0.62 l -15.4,-23.83 c -0.16,-0.25 -0.52,-0.25 -0.67,0 l -15.09,24.1 c -0.17,0.27 0.02,0.62 0.34,0.61 l 13.23,-0.1 c 0.22,0 0.4,0.18 0.4,0.4 l 2.67,699.96 c 0,0.22 -0.18,0.4 -0.4,0.4 l -14.13,0.07 c -0.32,0 -0.51,0.35 -0.34,0.61 l 14.42,22.53 c 0.16,0.25 0.52,0.25 0.68,0 l 14.32,-22.64"
     id="path12" />
  <rect
     style="fill:#000000;stroke:#020202;stroke-width:0.833093;stroke-opacity:0.502"
     id="rect3"
     width="568.29883"
     height="1.257535"
     x="913.08649"
     y="141.18318" />
  <rect
     style="fill:#000000;stroke:#020202;stroke-width:0.833093;stroke-opacity:0.502"
     id="rect3-4"
     width="568.29883"
     height="1.257535"
     x="917.74072"
     y="237.72801" />
  <rect
     style="fill:#000000;stroke:#020202;stroke-width:0.833093;stroke-opacity:0.502"
     id="rect3-4-9"
     width="568.29883"
     height="1.257535"
     x="907.33521"
     y="338.09048" />
  <rect
     style="fill:#000000;stroke:#020202;stroke-width:0.833093;stroke-opacity:0.502"
     id="rect3-4-9-8"
     width="568.29883"
     height="1.257535"
     x="911.15607"
     y="438.77866" />
  <rect
     style="fill:#ff0000;stroke:#020202;stroke-width:1.54365;stroke-opacity:0.502"
     id="rect3-4-9-8-2"
     width="567.58826"
     height="4.3228731"
     x="914.8772"
     y="539.83905" />
  <rect
     style="fill:#ff0000;stroke:#020202;stroke-width:1.54365;stroke-opacity:0.502"
     id="rect3-4-9-8-2-38"
     width="567.58826"
     height="4.3228731"
     x="874.52905"
     y="1035.7549" />
  <rect
     style="fill:#ff0000;stroke:#020202;stroke-width:1.54365;stroke-opacity:0.502"
     id="rect3-4-9-8-2-38-4"
     width="567.58826"
     height="4.3228731"
     x="854.8913"
     y="1536.2228" />
  <rect
     style="fill:#ff0000;stroke:#020202;stroke-width:1.54365;stroke-opacity:0.502"
     id="rect3-4-9-8-2-38-4-0"
     width="567.58826"
     height="4.3228731"
     x="859.23584"
     y="2036.8788" />
  <rect
     style="fill:#000000;stroke:#020202;stroke-width:0.833093;stroke-opacity:0.502"
     id="rect3-4-9-8-2-0"
     width="568.29883"
     height="1.257535"
     x="886.4505"
     y="636.98511" />
  <rect
     style="fill:#000000;stroke:#020202;stroke-width:0.833093;stroke-opacity:0.502"
     id="rect3-7"
     width="568.29883"
     height="1.257535"
     x="878.2597"
     y="741.90216" />
  <rect
     style="fill:#000000;stroke:#020202;stroke-width:0.833093;stroke-opacity:0.502"
     id="rect3-4-4"
     width="568.29883"
     height="1.257535"
     x="882.91394"
     y="838.44696" />
  <rect
     style="fill:#000000;stroke:#020202;stroke-width:0.833093;stroke-opacity:0.502"
     id="rect3-4-9-85"
     width="568.29883"
     height="1.257535"
     x="872.50842"
     y="938.80945" />
  <rect
     style="fill:#000000;stroke:#020202;stroke-width:0.833093;stroke-opacity:0.502"
     id="rect3-4-9-8-8"
     width="568.29883"
     height="1.257535"
     x="876.32928"
     y="1039.4977" />
  <rect
     style="fill:#000000;stroke:#020202;stroke-width:0.833093;stroke-opacity:0.502"
     id="rect3-4-9-8-2-3"
     width="568.29883"
     height="1.257535"
     x="879.69513"
     y="1140.2028" />
  <rect
     style="fill:#000000;stroke:#020202;stroke-width:0.833093;stroke-opacity:0.502"
     id="rect3-4-9-8-2-0-0"
     width="568.29883"
     height="1.257535"
     x="851.62372"
     y="1237.7041" />
  <rect
     style="fill:#000000;stroke:#020202;stroke-width:0.833093;stroke-opacity:0.502"
     id="rect3-7-5"
     width="568.29883"
     height="1.257535"
     x="850.38025"
     y="1338.3335" />
  <rect
     style="fill:#000000;stroke:#020202;stroke-width:0.833093;stroke-opacity:0.502"
     id="rect3-4-4-2"
     width="568.29883"
     height="1.257535"
     x="855.03448"
     y="1434.8783" />
  <rect
     style="fill:#000000;stroke:#020202;stroke-width:0.833093;stroke-opacity:0.502"
     id="rect3-4-9-85-1"
     width="568.29883"
     height="1.257535"
     x="844.62897"
     y="1535.2407" />
  <rect
     style="fill:#000000;stroke:#020202;stroke-width:0.833093;stroke-opacity:0.502"
     id="rect3-4-9-8-8-1"
     width="568.29883"
     height="1.257535"
     x="848.44983"
     y="1635.929" />
  <rect
     style="fill:#000000;stroke:#020202;stroke-width:0.833093;stroke-opacity:0.502"
     id="rect3-4-9-8-2-3-0"
     width="568.29883"
     height="1.257535"
     x="851.81567"
     y="1736.634" />
  <rect
     style="fill:#000000;stroke:#020202;stroke-width:0.833093;stroke-opacity:0.502"
     id="rect3-4-9-8-2-0-0-1"
     width="568.29883"
     height="1.257535"
     x="823.74426"
     y="1834.1354" />
  <rect
     style="fill:#000000;stroke:#020202;stroke-width:0.935293;stroke-opacity:0.502"
     id="rect3-4-9-8-2-0-0-1-2"
     width="779.64661"
     height="1.1553346"
     x="661.07037"
     y="1937.6755" />
  <rect
     style="fill:#000000;stroke:#020202;stroke-width:0.681029;stroke-opacity:0.502"
     id="rect4"
     width="2.6948164"
     height="1915.3547"
     x="-1061.7438"
     y="74.399719"
     transform="scale(-1,1)" />
  <rect
     style="fill:#000000;stroke:#020202;stroke-width:0.681029;stroke-opacity:0.502"
     id="rect4-0"
     width="2.6948164"
     height="1915.3547"
     x="-1163.0354"
     y="-534.65948"
     transform="scale(-1,1)" />
  <rect
     style="fill:#ff0000;stroke:#020202;stroke-width:1.38055;stroke-opacity:0.502"
     id="rect4-9"
     width="7.0298195"
     height="3017.2156"
     x="-965.47791"
     y="-1016.3658"
     transform="scale(-1,1)" />
</svg>
