<?xml version="1.0" encoding="UTF-8" standalone="no"?>
<!DOCTYPE svg PUBLIC "-//W3C//DTD SVG 1.1//EN" "http://www.w3.org/Graphics/SVG/1.1/DTD/svg11.dtd">
<svg xmlns="http://www.w3.org/2000/svg" version="1.1" viewBox="0.00 0.00 650.00 570.00">
<path stroke="#000000" stroke-opacity="0.000" fill="none" stroke-width="1.00" vector-effect="non-scaling-stroke" d="
  M 0.00 0.00
  L 650.00 0.00
  L 650.00 570.00
  L 0.00 570.00
  L 0.00 0.00"
/>
<path stroke="#000000" stroke-opacity="0.502" fill="none" stroke-width="1.00" vector-effect="non-scaling-stroke" d="
  M 162.23 220.44
  Q 161.50 222.11 161.74 220.30
  L 185.58 41.01
  Q 185.68 40.28 185.01 39.98
  L 138.66 19.30
  C 138.54 19.25 138.46 19.12 138.48 18.98
  Q 138.51 18.80 138.37 18.73
  C 138.16 18.62 137.91 18.78 137.92 19.01
  C 139.25 51.35 113.77 75.16 82.36 75.60
  Q 82.12 75.60 82.12 75.84
  L 82.12 553.00
  C 82.12 553.18 82.26 553.32 82.44 553.32
  L 284.75 551.74
  Q 285.49 551.73 285.36 550.99
  Q 272.53 480.43 260.87 403.98
  Q 259.87 397.45 259.04 391.22
  C 258.18 384.74 258.12 378.71 258.47 372.34
  C 261.00 326.76 266.26 279.58 272.52 233.28
  Q 272.60 232.72 272.06 232.53
  Q 264.57 229.78 259.65 226.98
  Q 232.78 211.69 233.88 179.33
  Q 234.40 163.91 240.16 147.18
  Q 250.89 116.02 272.73 85.28
  Q 273.01 84.88 272.64 84.57
  L 236.00 53.29
  C 235.75 53.07 235.35 53.16 235.21 53.47
  L 162.23 220.44"
/>
<path stroke="#000000" stroke-opacity="0.502" fill="none" stroke-width="1.00" vector-effect="non-scaling-stroke" d="
  M 493.20 96.73
  Q 493.20 99.29 492.72 96.77
  L 483.51 48.19
  C 483.46 47.95 483.20 47.81 482.97 47.92
  L 407.76 83.53
  Q 407.22 83.79 407.48 84.32
  Q 419.67 109.81 420.67 139.87
  C 421.28 158.04 419.34 176.88 415.23 194.53
  Q 411.89 208.88 405.98 220.74
  Q 401.79 229.12 394.70 234.26
  Q 394.29 234.55 394.34 235.05
  Q 395.18 245.07 396.22 254.72
  Q 403.05 317.54 410.61 380.17
  Q 411.01 383.52 410.39 386.90
  Q 395.19 469.80 380.16 552.31
  C 380.09 552.69 380.38 553.05 380.77 553.05
  L 565.96 553.07
  C 566.26 553.07 566.50 552.83 566.51 552.52
  L 568.22 57.27
  Q 568.22 56.89 567.85 56.94
  C 547.94 59.98 526.92 55.46 512.20 41.35
  Q 511.76 40.92 511.20 41.16
  Q 502.45 44.78 493.45 46.86
  C 493.27 46.90 493.15 47.06 493.15 47.24
  L 493.20 96.73"
/>
<path stroke="#000000" stroke-opacity="0.502" fill="none" stroke-width="1.00" vector-effect="non-scaling-stroke" d="
  M 141.42 23.88
  Q 140.88 23.64 140.87 24.23
  C 140.25 53.85 114.88 77.11 85.85 78.46
  Q 85.13 78.49 85.13 79.21
  L 85.13 230.99
  Q 85.13 231.34 85.49 231.34
  L 156.94 231.34
  Q 157.22 231.34 157.26 231.05
  L 182.33 42.52
  C 182.36 42.30 182.24 42.09 182.03 41.99
  L 141.42 23.88"
/>
<path stroke="#000000" stroke-opacity="0.502" fill="none" stroke-width="1.00" vector-effect="non-scaling-stroke" d="
  M 236.50 58.14
  L 160.97 230.90
  Q 160.78 231.34 161.26 231.34
  L 260.28 231.34
  Q 261.58 231.34 260.42 230.77
  C 236.07 218.85 227.84 195.35 231.71 169.26
  Q 234.39 151.20 242.79 131.80
  Q 252.90 108.45 268.59 85.82
  C 268.76 85.58 268.72 85.24 268.49 85.05
  L 236.87 58.06
  C 236.75 57.96 236.56 58.00 236.50 58.14"
/>
<path stroke="#000000" stroke-opacity="0.502" fill="none" stroke-width="1.00" vector-effect="non-scaling-stroke" d="
  M 156.21 242.08
  Q 155.99 238.70 156.83 235.07
  C 156.92 234.68 156.63 234.31 156.23 234.31
  L 85.66 234.32
  Q 85.13 234.32 85.13 234.84
  L 85.14 384.77
  C 85.14 384.92 85.26 385.04 85.41 385.04
  L 144.02 384.64
  Q 144.68 384.64 144.73 383.98
  L 156.19 245.68
  Q 156.33 243.88 156.21 242.08"
/>
<path stroke="#000000" stroke-opacity="0.502" fill="none" stroke-width="1.00" vector-effect="non-scaling-stroke" d="
  M 160.20 236.03
  L 173.13 383.83
  Q 173.18 384.48 173.84 384.48
  L 254.69 383.88
  Q 255.28 383.88 255.28 383.29
  C 255.27 375.08 255.62 366.73 256.23 358.54
  Q 260.71 298.23 269.25 235.09
  C 269.28 234.84 269.11 234.60 268.86 234.54
  Q 267.73 234.31 266.58 234.31
  Q 213.87 234.27 159.97 234.31
  Q 159.38 234.32 159.70 234.81
  L 159.90 235.13
  Q 160.16 235.54 160.20 236.03"
/>
<path stroke="#000000" stroke-opacity="0.502" fill="none" stroke-width="1.00" vector-effect="non-scaling-stroke" d="
  M 159.27 257.49
  Q 159.16 256.16 159.01 255.01
  Q 158.80 253.37 158.58 255.01
  Q 158.25 257.48 158.02 260.21
  Q 152.87 322.23 147.76 384.18
  C 147.74 384.44 147.95 384.67 148.21 384.66
  L 169.79 384.47
  Q 170.22 384.47 170.18 384.04
  Q 163.48 310.74 159.27 257.49"
/>
<path stroke="#000000" stroke-opacity="0.502" fill="none" stroke-width="1.00" vector-effect="non-scaling-stroke" d="
  M 255.52 387.25
  C 255.49 387.04 255.32 386.89 255.12 386.89
  L 173.20 387.49
  C 173.08 387.49 172.99 387.58 172.98 387.70
  L 160.16 549.27
  C 160.14 549.49 160.31 549.67 160.53 549.67
  L 281.23 548.75
  Q 281.79 548.74 281.69 548.19
  Q 272.04 493.20 261.96 431.51
  Q 258.44 409.97 255.52 387.25"
/>
<path stroke="#000000" stroke-opacity="0.502" fill="none" stroke-width="1.00" vector-effect="non-scaling-stroke" d="
  M 85.14 549.83
  C 85.14 550.07 85.33 550.26 85.57 550.26
  L 156.59 549.67
  C 156.84 549.67 157.03 549.46 157.02 549.21
  L 144.81 388.03
  C 144.79 387.81 144.60 387.63 144.38 387.63
  L 85.56 388.10
  C 85.32 388.10 85.13 388.29 85.13 388.53
  L 85.14 549.83"
/>
<path stroke="#000000" stroke-opacity="0.502" fill="none" stroke-width="1.00" vector-effect="non-scaling-stroke" d="
  M 153.86 467.62
  Q 156.26 499.35 158.47 528.51
  Q 158.48 528.68 158.66 528.68
  L 158.66 528.68
  Q 158.84 528.68 158.85 528.51
  Q 164.36 457.42 169.92 388.14
  Q 169.98 387.47 169.30 387.47
  L 148.48 387.63
  Q 147.82 387.64 147.87 388.29
  Q 150.87 428.06 153.86 467.62"
/>
<path stroke="#000000" stroke-opacity="0.502" fill="none" stroke-width="1.00" vector-effect="non-scaling-stroke" d="
  M 493.04 114.73
  L 481.29 52.72
  Q 481.18 52.15 480.65 52.40
  L 411.60 85.09
  C 411.45 85.16 411.38 85.33 411.45 85.48
  Q 423.01 111.64 423.73 140.86
  Q 424.25 162.07 420.44 184.21
  Q 417.12 203.51 410.32 218.77
  Q 406.22 227.99 399.52 234.49
  Q 399.08 234.91 399.69 234.91
  L 563.92 234.91
  Q 564.50 234.91 564.50 234.33
  L 564.98 61.02
  Q 564.98 60.39 564.35 60.45
  C 545.41 62.12 525.55 57.96 511.55 44.86
  Q 511.12 44.46 510.58 44.68
  Q 503.81 47.39 496.83 49.17
  Q 496.19 49.33 496.19 49.99
  L 496.21 114.53
  Q 496.21 115.01 495.72 115.06
  L 493.74 115.25
  Q 493.15 115.30 493.04 114.73"
/>
<path stroke="#000000" stroke-opacity="0.502" fill="none" stroke-width="1.00" vector-effect="non-scaling-stroke" d="
  M 498.60 238.59
  C 498.64 238.25 498.37 237.95 498.03 237.95
  L 397.97 237.97
  C 397.62 237.97 397.35 238.27 397.39 238.62
  L 413.68 381.84
  C 413.71 382.13 413.96 382.35 414.26 382.35
  L 483.42 382.35
  C 483.71 382.35 483.96 382.12 483.99 381.83
  L 498.60 238.59"
/>
<path stroke="#000000" stroke-opacity="0.502" fill="none" stroke-width="1.00" vector-effect="non-scaling-stroke" d="
  M 564.52 238.34
  C 564.52 238.13 564.35 237.96 564.14 237.96
  L 502.38 237.96
  C 502.16 237.96 501.99 238.15 502.00 238.37
  L 513.43 382.00
  C 513.45 382.20 513.61 382.35 513.81 382.35
  L 563.72 382.35
  C 563.93 382.35 564.10 382.18 564.10 381.97
  L 564.52 238.34"
/>
<path stroke="#000000" stroke-opacity="0.502" fill="none" stroke-width="1.00" vector-effect="non-scaling-stroke" d="
  M 499.85 254.21
  C 495.94 296.80 491.17 340.61 487.06 381.79
  Q 487.00 382.35 487.55 382.35
  L 509.79 382.35
  Q 510.43 382.35 510.38 381.71
  L 500.24 254.24
  Q 500.23 254.12 500.13 254.12
  L 499.87 254.12
  Q 499.86 254.12 499.85 254.21"
/>
<path stroke="#000000" stroke-opacity="0.502" fill="none" stroke-width="1.00" vector-effect="non-scaling-stroke" d="
  M 383.74 549.49
  C 383.70 549.71 383.87 549.91 384.09 549.91
  L 497.40 549.90
  C 497.61 549.90 497.77 549.72 497.76 549.51
  L 483.94 385.69
  C 483.92 385.50 483.77 385.36 483.58 385.36
  L 414.03 385.37
  C 413.86 385.37 413.71 385.49 413.68 385.67
  L 383.74 549.49"
/>
<path stroke="#000000" stroke-opacity="0.502" fill="none" stroke-width="1.00" vector-effect="non-scaling-stroke" d="
  M 486.96 385.73
  C 490.89 431.82 494.76 477.92 498.64 524.02
  C 498.81 525.99 498.66 527.97 498.96 529.90
  Q 499.21 531.58 499.42 529.90
  Q 499.79 526.84 500.03 523.68
  Q 505.17 455.19 510.42 385.91
  Q 510.46 385.36 509.91 385.36
  L 487.28 385.38
  C 487.09 385.38 486.94 385.54 486.96 385.73"
/>
<path stroke="#000000" stroke-opacity="0.502" fill="none" stroke-width="1.00" vector-effect="non-scaling-stroke" d="
  M 501.12 549.40
  C 501.10 549.66 501.31 549.89 501.58 549.89
  L 563.12 549.90
  C 563.37 549.90 563.58 549.69 563.58 549.44
  L 564.06 385.83
  C 564.06 385.58 563.85 385.37 563.60 385.37
  L 513.90 385.36
  C 513.66 385.36 513.46 385.55 513.44 385.79
  L 501.12 549.40"
/>
</svg>
